<svg width="32" height="32" viewBox="0 0 32 32" fill="none" xmlns="http://www.w3.org/2000/svg">
<circle opacity="0.3" cx="16" cy="16" r="15.5" stroke="white"/>
<path d="M20.1683 12.429H19.5792V11.579C19.5791 9.60542 17.9735 8 16 8C14.0265 8 12.4209 9.60565 12.4209 11.579V12.429H11.8317C10.8738 12.429 10.0945 13.2084 10.0945 14.1663V22.2627C10.0945 23.2209 10.8738 24 11.8317 24H20.1682C21.1261 24 21.9055 23.2208 21.9055 22.2627V14.1663C21.9055 13.2084 21.1261 12.429 20.1683 12.429ZM13.5542 11.579C13.5542 10.2305 14.6513 9.13337 16 9.13337C17.3486 9.13337 18.4457 10.2305 18.4457 11.579V12.429H13.5542V11.579ZM20.7722 22.2627C20.7722 22.596 20.5012 22.8666 20.1683 22.8666H11.8317C11.4987 22.8666 11.2278 22.5957 11.2278 22.2627V14.1663C11.2278 13.8333 11.4987 13.5624 11.8317 13.5624H12.4208V14.3571C12.2387 14.5158 12.1212 14.7468 12.1212 15.0075C12.1212 15.4859 12.5091 15.8739 12.9875 15.8739C13.4658 15.8739 13.8538 15.4859 13.8538 15.0075C13.8538 14.747 13.7363 14.516 13.5542 14.3571V13.5624H18.4457V14.3571C18.2636 14.5158 18.1461 14.7468 18.1461 15.0075C18.1461 15.4859 18.5339 15.8739 19.0124 15.8739C19.4908 15.8739 19.8787 15.4859 19.8787 15.0075C19.8787 14.747 19.7611 14.5158 19.5791 14.3571V13.5624H20.1682C20.5012 13.5624 20.7721 13.8333 20.7721 14.1663V22.2627H20.7722Z" fill="white"/>
</svg>
