<svg width="142" height="32" viewBox="0 0 142 32" fill="none" xmlns="http://www.w3.org/2000/svg">
<path fill-rule="evenodd" clip-rule="evenodd" d="M121.069 0.287129C121.069 0.287129 126.356 -0.269882 127.284 11.5968C127.645 11.3175 129.949 6.62136 133.82 6.62136C137.692 6.62136 138.5 12.477 138.338 15.226C138.177 17.9734 139.791 25.8986 141.004 28.7292C141.287 29.3254 141.768 31.7559 139.026 31.9943C136.283 32.2344 134.871 24.7469 134.871 24.7469C134.111 20.8039 133.694 16.8013 133.622 12.7877C133.622 12.1915 133.419 10.9958 132.572 12.2307C131.725 13.4655 128.819 18.3233 128.819 18.3233C128.295 19.2208 127.317 19.7574 126.277 19.7182C124.423 19.7182 123.252 17.2893 122.89 13.307C122.733 10.7589 122.245 8.24061 121.437 5.81801C121.195 5.49949 121.113 4.78244 120.387 5.97805C118.446 9.27775 116.966 12.8285 115.99 16.533C114.497 22.067 113.246 27.8427 113.246 27.8427C113.246 27.8427 112.923 30.1131 110.985 30.1131C109.049 30.1131 108.363 28.7182 108.809 26.7679C109.253 24.816 111.591 14.2234 113.326 10.1595C115.062 6.0973 117.238 0.561712 121.069 0.282422V0.287129ZM91.4554 13.5487C91.3408 13.7762 91.4303 14.0523 91.6578 14.1685C91.6703 14.1747 91.6829 14.1794 91.697 14.1857C93.3147 14.6266 94.9826 14.8541 96.6583 14.8635C99.161 14.8635 104.083 13.748 104.083 10.2835C104.083 6.81749 101.744 4.50786 99.7666 4.50786C97.7896 4.50786 92.4643 7.25055 91.4554 13.544V13.5487ZM89.1959 29.3191C89.1959 29.3191 87.0165 29.1999 86.7749 27.4865C86.5333 25.7747 86.1284 20.7161 86.1284 19.0827C86.1284 17.4493 86.6133 1.47804 99.7258 0C100.816 0 108.603 1.23484 108.603 10.555C108.603 18.6387 98.7169 19.3541 97.0631 19.3541C94.992 19.2522 92.9287 19.0137 90.8905 18.6371C90.8889 21.0707 91.0097 23.5027 91.2529 25.9237C91.4946 27.8427 91.2137 29.0775 89.1959 29.3191ZM72.0212 14.5089C72.0212 14.5089 74.6227 14.8086 74.6227 16.8688C74.6227 18.692 72.8387 19.3792 71.5662 19.3792C70.3094 19.3604 69.3052 18.328 69.3225 17.0712C69.3241 17.0288 69.3241 16.988 69.3272 16.9441C69.3241 15.5257 70.959 14.5089 72.0165 14.5089H72.0212ZM40.0959 0.680984C40.0959 0.680984 44.3935 0.561737 44.8768 7.37138V12.2103C44.8768 12.2103 48.6299 7.72912 53.108 7.72912C57.586 7.72912 58.7942 14.0602 58.3737 19.26C58.3093 22.0121 58.4317 24.7674 58.7361 27.5038C58.9009 28.7794 57.9987 29.9468 56.7215 30.1115C56.6273 30.1241 56.5316 30.1303 56.4375 30.1319C56.4375 30.1319 53.9553 29.713 53.9553 27.5038C53.9553 25.2946 53.7121 23.1418 53.778 20.8714C53.8423 18.601 54.3224 13.941 53.1723 12.6277C52.0206 11.3128 48.5719 14.9577 47.3009 16.271C46.03 17.5827 45.3051 18.7799 43.1257 18.7799C40.9463 18.7799 40.5227 15.8866 40.4019 14.465C40.4019 14.465 40.4317 7.99743 40.314 7.10151C40.1947 6.20401 40.0096 5.5764 39.7978 5.5764C39.586 5.5764 37.9526 6.59471 36.6205 9.87714C34.7172 14.4415 33.3176 19.1988 32.4452 24.066C32.1424 25.7104 32.5661 27.7407 29.9646 27.6811C27.3615 27.6199 27.6942 24.9635 27.7538 24.4818C27.815 24.0017 29.1471 15.2229 31.4771 10.2663C33.8072 5.31123 35.7952 1.03873 40.0928 0.680984H40.0959ZM8.82335 12.3484C8.82335 12.3484 12.0509 12.5084 13.7094 12.7877C15.3678 13.067 17.9866 13.544 17.9866 13.544C17.9866 13.544 17.9866 6.41425 14.8767 4.78244C14.4735 4.62397 13.0943 5.30023 11.8265 7.01205C10.6136 8.66425 9.60474 10.4561 8.82335 12.3484ZM3.89967 12.7469C7.37039 1.31799 13.8662 0.163171 14.7135 0.163171C22.3391 1.15794 22.5807 12.3091 22.7423 14.8588C22.9055 17.407 23.4688 24.6167 23.6304 25.6899C23.7324 26.9954 22.7564 28.1345 21.4526 28.2349C21.4259 28.2365 21.3992 28.2381 21.3725 28.2396C19.9196 28.2396 19.1131 26.6062 19.0315 25.9692C18.9515 25.3322 18.5483 18.0848 18.4274 18.0048C16.8207 17.625 15.1874 17.3724 13.5414 17.2485C11.6037 17.1277 8.49697 16.8091 7.44885 16.6507C7.16642 17.1277 4.74539 26.1685 4.54298 26.986C4.24015 28.2428 2.97237 29.0194 1.71399 28.715C1.59161 28.6868 1.47236 28.646 1.35625 28.5989C-0.62074 27.9211 0.146521 25.3714 0.146521 25.3714C0.146521 25.3714 0.430518 24.1789 3.89967 12.7469Z" fill="white"/>
</svg>
